<svg xmlns="http://www.w3.org/2000/svg" class="icon icon-tabler icon-tabler-brand-react" width="24" height="24" viewBox="0 0 24 24" stroke-width="2" stroke="currentColor" fill="none" stroke-linecap="round" stroke-linejoin="round">
   <path stroke="none" d="M0 0h24v24H0z" fill="none"></path>
   <path d="M6.3 12l-3.3 -3l-1 3l4 4l3 -1l3 3l-3 3l-4 -4l1 -3l3.3 -3"></path>
   <path d="M17.7 12l3.3 -3l1 3l-4 4l-3 -1l-3 3l3 3l4 -4l-1 -3l-3.3 -3"></path>
   <path d="M12 3l-3 3l3 3l3 -3l-3 -3"></path>
   <path d="M12 21l-3 -3l3 -3l3 3l-3 3"></path>
   <path d="M12 12m-3 0a3 3 0 1 0 6 0a3 3 0 1 0 -6 0"></path>
</svg>