<svg xmlns="http://www.w3.org/2000/svg" class="icon icon-tabler icon-tabler-brand-tailwind" width="24" height="24" viewBox="0 0 24 24" stroke-width="2" stroke="currentColor" fill="none" stroke-linecap="round" stroke-linejoin="round">
   <path stroke="none" d="M0 0h24v24H0z" fill="none"></path>
   <path d="M4 18c-1.11 0 -2 -.89 -2 -2s.89 -2 2 -2h16a2 2 0 0 1 2 2c0 1.11 -.89 2 -2 2h-16z"></path>
   <path d="M12 12c-1.11 0 -2 -.89 -2 -2s.89 -2 2 -2h8a2 2 0 0 1 2 2c0 1.11 -.89 2 -2 2h-8z"></path>
   <path d="M8 6c-1.11 0 -2 -.89 -2 -2s.89 -2 2 -2h4a2 2 0 0 1 2 2c0 1.11 -.89 2 -2 2h-4z"></path>
</svg>